<svg width="88" height="128" viewBox="0 0 88 128" fill="none" xmlns="http://www.w3.org/2000/svg">
<g clip-path="url(#clip0_9025_98731)">
<rect width="88" height="128" rx="16" fill="white"/>
<path d="M19.7419 112.991C21.6702 104.669 25.5776 97.717 25.5776 97.717C27.2015 92.5916 17.3061 83.0007 13.7031 72.8008C15.6822 81.732 17.712 89.9021 17.712 92.1349C17.712 95.9916 15.6315 101.777 15.6315 101.777C15.6315 101.777 16.8494 106.902 19.7419 112.991Z" fill="#FAFAFA" stroke="#A1A1AA" stroke-miterlimit="10" stroke-linejoin="round"/>
<path d="M74.6952 69.6055C74.5937 69.707 74.5429 69.707 74.5429 69.707C72.1071 81.0233 59.9789 92.0859 61.755 97.6679C61.755 97.6679 65.7639 105.026 67.54 113.653C70.6863 107.259 72.0564 101.677 72.0564 101.677C72.0564 101.677 69.9758 95.8918 69.9758 92.0351C69.9758 89.6501 72.5131 79.7039 74.6952 69.6055Z" fill="#FAFAFA" stroke="#A1A1AA" stroke-miterlimit="10" stroke-linejoin="round"/>
<path d="M-4.87457 41.1865C-12.182 50.8282 -0.205951 74.222 -7.10738 91.4248C-7.10738 91.4248 13.9014 63.1087 10.2984 49.0521C10.2984 49.0521 12.2268 34.6403 4.10744 31.494C-4.01189 28.297 -4.87457 41.1865 -4.87457 41.1865Z" fill="#FAFAFA" stroke="#A1A1AA" stroke-miterlimit="10" stroke-linejoin="round"/>
<path d="M92.2019 41.1865C99.5093 50.8282 87.5333 74.222 94.4347 91.4248C94.4347 91.4248 73.4259 63.1087 77.0289 49.0521C77.0289 49.0521 75.1005 34.6403 83.2199 31.494C91.3899 28.297 92.2019 41.1865 92.2019 41.1865Z" fill="#FAFAFA" stroke="#A1A1AA" stroke-miterlimit="10" stroke-linejoin="round"/>
<path d="M46.8879 80.0547C45.061 82.6935 43.6401 84.2159 43.6401 84.2159C43.6401 84.2159 42.2192 82.6935 40.3924 80.0547C40.5954 82.0845 41.8133 96.8008 30.6492 104.768C30.6492 104.768 27.0462 134.403 43.6909 134.403C60.3355 134.403 56.5803 104.768 56.5803 104.768C45.5177 96.8008 46.6849 82.0845 46.8879 80.0547Z" fill="#E4E4E7" stroke="#52525B" stroke-miterlimit="10" stroke-linejoin="round"/>
<path d="M43.6914 84.2188L43.8436 132.681" stroke="#A1A1AA" stroke-miterlimit="10" stroke-linejoin="round"/>
<path d="M43.8448 15.8086C3.4004 15.8593 6.64813 34.9398 6.64813 34.9398C6.64813 34.9398 8.8302 41.486 10.2511 54.0202C10.86 59.3485 12.2809 66.25 13.7018 72.7962C17.3048 82.9961 27.2002 92.587 25.5763 97.7123C25.5763 97.7123 21.7196 104.665 19.7405 112.987C22.8868 119.635 28.0121 127.399 35.5732 130.849C28.5196 122.984 30.7016 104.766 30.7016 104.766C41.8657 96.7989 40.6478 82.0319 40.4448 80.0528C42.2717 82.6916 43.6926 84.214 43.6926 84.214C43.6926 84.214 45.1135 82.6916 46.9403 80.0528C46.7373 82.0826 45.5194 96.7989 56.6835 104.766C56.6835 104.766 59.0178 123.187 51.8119 131.002C59.2715 127.754 64.3461 120.294 67.5939 113.697C65.8177 105.07 61.8088 97.7123 61.8088 97.7123C60.0327 92.0796 72.161 81.0677 74.5968 69.7514C74.5968 69.7514 74.6475 69.7007 74.749 69.6499C75.9162 64.1186 77.0326 58.5366 77.54 54.0709C78.9609 41.486 81.143 34.9905 81.143 34.9905C81.143 34.9905 84.2892 15.8593 43.8448 15.8086Z" fill="#E4E4E7" stroke="#52525B" stroke-miterlimit="10" stroke-linejoin="round"/>
<path d="M54.8548 52.5526C72.2606 55.8511 78.8068 32.0005 78.8068 32.0005C78.8068 32.0005 75.2038 22.5618 62.9741 20.8872C50.6936 19.2126 54.8548 52.5526 54.8548 52.5526Z" fill="white" stroke="#A1A1AA" stroke-miterlimit="10" stroke-linejoin="round"/>
<path d="M32.4755 52.5546C15.0697 55.853 8.52344 32.0025 8.52344 32.0025C8.52344 32.0025 12.1264 22.5638 24.3561 20.8892C36.6366 19.2145 32.4755 52.5546 32.4755 52.5546Z" fill="white" stroke="#A1A1AA" stroke-miterlimit="10" stroke-linejoin="round"/>
<path d="M43.6922 -20.3164C37.958 -20.3164 35.4207 -18.0836 35.4207 -18.0836C35.4207 -3.92551 35.7251 -0.931503 29.2297 3.94009C22.7342 8.86244 20.0447 12.5669 11.3164 13.1758L24.4088 20.8892C30.5491 27.0802 32.4774 42.1009 32.6297 57.3247C32.7819 72.5484 43.6922 84.22 43.6922 84.22C43.6922 84.22 54.6026 72.4977 54.7548 57.3247C54.9071 42.1009 56.8354 27.0802 62.9757 20.8892L76.0681 13.1758C67.3905 12.5669 64.6503 8.86244 58.1548 3.94009C51.6593 -0.982248 51.9638 -3.92551 51.9638 -18.0836C51.9638 -18.0836 49.4265 -20.3164 43.6922 -20.3164Z" fill="white" stroke="#A1A1AA" stroke-miterlimit="10" stroke-linejoin="round"/>
<path d="M78.8075 32C78.8075 32 72.312 55.8505 54.8555 52.5521C68.8106 57.5759 78.1478 48.0357 78.1478 48.0357C78.1478 48.0357 87.891 33.9283 78.8075 32Z" fill="#E4E4E7" stroke="#52525B" stroke-miterlimit="10" stroke-linejoin="round"/>
<path d="M8.57603 32C8.57603 32 15.0715 55.8505 32.5281 52.5521C18.573 57.5759 9.23572 48.0357 9.23572 48.0357C9.23572 48.0357 -0.507475 33.9283 8.57603 32Z" fill="#E4E4E7" stroke="#52525B" stroke-miterlimit="10" stroke-linejoin="round"/>
<path d="M43.6914 -20.3164L43.8436 84.22" stroke="#A1A1AA" stroke-miterlimit="10" stroke-linejoin="round"/>
<path d="M97.8393 50.8284C97.8393 50.8284 94.9468 38.6494 78.8097 32.0017C62.6725 25.354 62.977 20.8884 62.977 20.8884C62.977 20.8884 71.0455 13.9362 73.4813 13.4288C75.9171 12.9213 84.4932 12.9213 87.6394 16.4228C90.7857 19.9242 96.0125 33.5749 96.7229 38.8017C97.4334 44.0285 97.8393 50.8284 97.8393 50.8284Z" fill="white" stroke="#A1A1AA" stroke-miterlimit="10" stroke-linejoin="round"/>
<path d="M-10.5039 50.8284C-10.5039 50.8284 -7.6114 38.6494 8.52577 32.0017C24.6629 25.354 24.3585 20.8884 24.3585 20.8884C24.3585 20.8884 16.2899 13.9362 13.8541 13.4288C11.4183 12.9213 2.84224 12.9213 -0.303998 16.4228C-3.45024 19.9242 -8.67706 33.5749 -9.3875 38.8017C-10.0472 44.0285 -10.5039 50.8284 -10.5039 50.8284Z" fill="white" stroke="#A1A1AA" stroke-miterlimit="10" stroke-linejoin="round"/>
<path d="M72.1131 101.726C67.5967 94.2668 65.3132 93.2519 56.1282 102.843C48.7193 110.556 43.8984 117.661 43.8984 132.681C43.8984 145.52 45.0148 152.574 56.2804 157.648C68.2057 162.977 89.0115 152.777 87.4891 134.102C85.6622 112.535 76.6295 109.186 72.1131 101.726Z" fill="white" stroke="#A1A1AA" stroke-miterlimit="10" stroke-linejoin="round"/>
<path d="M15.5801 101.726C20.0965 94.2668 22.3801 93.2519 31.565 102.843C38.9739 110.556 43.7948 117.661 43.7948 132.681C43.7948 143.795 42.6784 152.574 31.4128 157.648C19.4875 162.977 -1.31824 152.777 0.204132 134.102C2.03098 112.535 11.0637 109.186 15.5801 101.726Z" fill="white" stroke="#A1A1AA" stroke-miterlimit="10" stroke-linejoin="round"/>
</g>
<rect x="0.5" y="0.5" width="87" height="127" rx="15.5" stroke="#D4D4D8"/>
<defs>
<clipPath id="clip0_9025_98731">
<rect width="88" height="128" rx="16" fill="white"/>
</clipPath>
</defs>
</svg>