<svg width="24" height="24" viewBox="0 0 24 24" fill="none" xmlns="http://www.w3.org/2000/svg">
<rect x="4.5" y="6" width="15" height="15" rx="7.5" fill="black" fill-opacity="0.2"/>
<path d="M12.4287 9.1416C12.0685 10.4864 12.2571 11.9193 12.9531 13.125C13.6493 14.3308 14.7967 15.2109 16.1416 15.5713L15.7529 17.0195C14.0238 16.5562 12.5494 15.4253 11.6543 13.875C10.7592 12.3246 10.5171 10.4821 10.9805 8.75293L12.4287 9.1416Z" fill="black"/>
<path fill-rule="evenodd" clip-rule="evenodd" d="M12 5.25C14.1353 5.25 16.0809 6.0615 17.5459 7.39258L19.4697 5.46973L20.5303 6.53027L18.5605 8.49902C19.6199 9.88661 20.25 11.6195 20.25 13.5C20.25 18.0563 16.5563 21.75 12 21.75C7.44365 21.75 3.75 18.0563 3.75 13.5C3.75 8.94365 7.44365 5.25 12 5.25ZM12 6.75C8.27208 6.75 5.25 9.77208 5.25 13.5C5.25 17.2279 8.27208 20.25 12 20.25C15.7279 20.25 18.75 17.2279 18.75 13.5C18.75 9.77208 15.7279 6.75 12 6.75Z" fill="black"/>
<path d="M15 3.75H9V2.25H15V3.75Z" fill="black"/>
</svg>
