<svg width="24" height="24" viewBox="0 0 24 24" fill="none" xmlns="http://www.w3.org/2000/svg">
<path fill-rule="evenodd" clip-rule="evenodd" d="M8 6C4.68629 6 2 8.68629 2 12C2 15.3137 4.68629 18 8 18H16C19.3137 18 22 15.3137 22 12C22 8.68629 19.3137 6 16 6H8ZM16 9C17.6569 9 19 10.3431 19 12C19 13.6569 17.6569 15 16 15C14.3431 15 13 13.6569 13 12C13 10.3431 14.3431 9 16 9Z" fill="black" fill-opacity="0.2"/>
<path fill-rule="evenodd" clip-rule="evenodd" d="M16 8.25C18.0711 8.25 19.75 9.92893 19.75 12C19.75 14.0711 18.0711 15.75 16 15.75C13.9289 15.75 12.25 14.0711 12.25 12C12.25 9.92893 13.9289 8.25 16 8.25ZM16 9.75C14.7574 9.75 13.75 10.7574 13.75 12C13.75 13.2426 14.7574 14.25 16 14.25C17.2426 14.25 18.25 13.2426 18.25 12C18.25 10.7574 17.2426 9.75 16 9.75Z" fill="black"/>
<path fill-rule="evenodd" clip-rule="evenodd" d="M16 5.25C19.7279 5.25 22.75 8.27208 22.75 12C22.75 15.7279 19.7279 18.75 16 18.75H8C4.27208 18.75 1.25 15.7279 1.25 12C1.25 8.27208 4.27208 5.25 8 5.25H16ZM8 6.75C5.10051 6.75 2.75 9.10051 2.75 12C2.75 14.8995 5.10051 17.25 8 17.25H16C18.8995 17.25 21.25 14.8995 21.25 12C21.25 9.10051 18.8995 6.75 16 6.75H8Z" fill="black"/>
</svg>
